<svg width="1440" height="2921" viewBox="0 0 1440 2921" fill="none" xmlns="http://www.w3.org/2000/svg">
<rect width="1440" height="2921" fill="#020213"/>
<path fill-rule="evenodd" clip-rule="evenodd" d="M291.443 186.741C288.261 180.049 286.909 172.53 289.439 165.189C296.728 144.036 325.467 156.819 328.389 169.264C331.311 181.709 323.222 209.123 315.156 209.046C311.94 209.015 306.039 205.398 300.57 199.718L296.902 229.783L272.726 223.305L291.443 186.741Z" fill="#D4A181"/>
<path fill-rule="evenodd" clip-rule="evenodd" d="M300.217 187.468C295.677 192.419 290.37 195.642 286.227 194.532C278.359 192.423 275.583 180.405 278.614 169.094C278.72 168.697 278.834 168.304 278.954 167.917C269.101 171.398 259.67 180.938 248.657 177.987C233.674 173.972 235.821 142.157 256.754 147.766C270.991 151.58 277.437 155.532 282.65 160.219C284.739 157.182 287.31 154.847 290.057 153.472C290.752 153.014 291.725 152.658 292.924 152.408C293.664 152.228 294.409 152.119 295.154 152.087C299.152 151.724 304.677 152.193 310.62 153.566C311.73 153.822 312.813 154.1 313.863 154.396C315.367 148.852 321.074 145.566 326.627 147.054C332.191 148.545 335.492 154.263 334.002 159.827C332.56 165.207 327.164 168.472 321.778 167.333C318.49 167.456 314.403 167.099 309.997 166.229C309.994 167.922 309.741 169.778 309.198 171.807C308.718 173.598 308.011 175.445 307.13 177.276C306.491 175.909 305.431 174.844 304.157 174.503C300.593 173.548 297.327 175.815 296.493 178.928C295.434 182.878 296.949 186.347 300.217 187.468Z" fill="#191847"/>
<path fill-rule="evenodd" clip-rule="evenodd" d="M241.887 315.498L280.09 447.14L298.058 545.978H316.093L298.09 315.498H241.887Z" fill="#BA8B72"/>
<path fill-rule="evenodd" clip-rule="evenodd" d="M224.719 315.498C227.385 383.885 226.333 421.185 225.737 427.399C225.14 433.612 221.753 475.224 198.674 548.064H217.431C247.997 478.187 258.666 436.574 262.172 427.399C265.678 418.223 276.031 380.923 291.147 315.498H224.719Z" fill="#D4A181"/>
<path fill-rule="evenodd" clip-rule="evenodd" d="M241.067 315.498C251.004 360.796 268.191 433.104 292.627 532.42H319.005C320.954 430.481 312.666 363.388 298.313 315.498H241.067Z" fill="#69A1AC"/>
<path fill-rule="evenodd" clip-rule="evenodd" d="M224.586 315.498C227.196 383.885 220.431 451.259 199.473 533.485H227.617C258.238 464.651 280.186 397.609 295.185 315.498H224.586Z" fill="#89C5CC"/>
<path fill-rule="evenodd" clip-rule="evenodd" d="M196 561.621L197.035 544.935C203.095 546.707 210.685 546.012 219.805 542.849C229.611 549.796 241.956 554.539 256.84 557.079C257.975 557.273 258.739 558.35 258.545 559.486C258.532 559.559 258.516 559.632 258.495 559.704L257.065 564.75H219.805H198.07L196 561.621Z" fill="#191847"/>
<path fill-rule="evenodd" clip-rule="evenodd" d="M294.032 561.621L295.067 544.935C301.127 546.707 308.717 546.012 317.837 542.849C327.643 549.796 339.988 554.539 354.872 557.079C356.007 557.273 356.771 558.35 356.577 559.486C356.564 559.559 356.548 559.632 356.528 559.704L355.097 564.75H317.837H296.102L294.032 561.621Z" fill="#191847"/>
<path fill-rule="evenodd" clip-rule="evenodd" d="M316.508 256.87L355.599 243.631C362.769 237.637 369.574 233.2 376.014 230.319C377.902 229.895 381.055 229.993 377.28 234.589C373.504 239.186 369.74 244.19 370.928 246.021C372.116 247.851 376.155 246.299 377.442 249.219C378.3 251.166 371.575 252.817 357.266 254.171L327.181 273.321L316.508 256.87ZM369.436 283.189L386.612 277.347C390.283 269.374 393.651 265.631 396.716 266.117C399.256 265.439 393.305 275.283 397.917 275.151C402.528 275.02 414.814 268.857 416.396 270.827C418.737 273.742 414.955 280.757 411.392 283.95C404.734 289.919 399.816 291.494 388.143 292.634C382.041 293.23 375.178 295.372 367.557 299.06L369.436 283.189Z" fill="#D4A181"/>
<path fill-rule="evenodd" clip-rule="evenodd" d="M299.914 249.459C312.423 251.529 329.539 251.828 349.294 243.683L353.528 260.473C339.129 270.474 320.135 277.429 305.143 274.349C293.328 271.922 289.792 256.49 299.914 249.459Z" fill="#2026A2"/>
<path fill-rule="evenodd" clip-rule="evenodd" d="M312.327 277.377C325 283.021 347.917 283.042 381.077 277.44C385.994 294.817 387.559 306.863 385.772 313.578C356.539 322.841 332.498 325.03 313.524 322.108C312.148 333.43 308.901 343.86 302.596 352.803C289.633 371.187 237.703 342.888 218.498 343.269C213.53 303.47 238.71 292.092 242.987 267.942C247.671 241.494 276.089 204.524 279.214 205.075L307.711 210.1C305.722 230.579 309.71 254.237 312.327 277.377Z" fill="#1F28CF"/>
<path fill-rule="evenodd" clip-rule="evenodd" d="M1224.74 266.49C1229.35 261.081 1232.46 254.453 1231.94 247.025C1230.44 225.625 1200.65 230.333 1194.86 241.134C1189.06 251.935 1189.75 279.333 1197.24 281.263C1200.23 282.033 1206.59 280.147 1213.06 276.244L1209 305H1233L1224.74 266.49Z" fill="#B28B67"/>
<path fill-rule="evenodd" clip-rule="evenodd" d="M1242.41 239.902C1243.18 239.134 1243.6 238.037 1243.97 236.996C1244.35 235.914 1244.72 234.822 1244.97 233.696C1245.48 231.447 1245.48 228.86 1243.88 227.114C1242.59 225.713 1240.66 225.085 1238.88 224.948C1237.69 224.857 1236.47 225.024 1235.33 225.398C1234.2 225.769 1233.23 226.509 1232.13 226.968C1232.09 224.544 1231.68 222.008 1230.45 219.938C1229.26 217.947 1227.38 216.829 1225.23 216.534C1223.02 216.23 1220.85 216.746 1218.87 217.814C1218.38 218.081 1217.89 218.361 1217.42 218.678C1217.03 218.944 1216.62 219.264 1216.16 219.372C1215.65 219.492 1215.39 219.196 1215.06 218.821C1214.67 218.382 1214.23 217.996 1213.76 217.653C1211.7 216.137 1208.99 215.514 1206.6 216.423C1205.5 216.841 1204.43 217.552 1203.69 218.531C1203.02 219.404 1202.55 220.789 1201.63 221.398C1201.24 221.656 1200.96 221.314 1200.61 221.061C1200.07 220.681 1199.57 220.262 1199.03 219.892C1198.27 219.373 1197.45 218.985 1196.57 218.781C1195.28 218.484 1193.51 218.553 1193.14 220.238C1193 220.871 1193.11 221.548 1193.15 222.186C1193.21 223.061 1193.28 223.936 1193.35 224.811C1193.41 225.474 1193.48 226.115 1193.61 226.767C1193.67 227.115 1193.88 227.763 1193.73 228.111C1193.55 228.546 1192.69 228.298 1192.32 228.313C1191.6 228.343 1190.87 228.47 1190.2 228.78C1189.68 229.021 1189.13 229.374 1188.91 229.969C1188.78 230.335 1188.81 230.711 1188.88 231.088C1188.95 231.539 1188.87 231.779 1188.81 232.235C1187.83 231.755 1184.46 230.69 1184.03 232.435C1183.89 233.016 1184.22 233.673 1184.46 234.163C1184.89 235.023 1185.46 235.809 1186.03 236.558C1187.24 238.121 1188.68 239.47 1190.22 240.623C1188.41 241.429 1187.94 243.806 1189.51 245.222C1190.2 245.848 1191.13 245.987 1192.01 245.947C1192.33 245.932 1192.79 245.809 1193.04 245.865C1193.17 245.895 1193.32 246.01 1193.51 246.022C1194.74 246.107 1196.13 245.81 1197.34 245.536C1199.49 245.048 1201.52 244.03 1203.18 242.48C1203.61 242.082 1203.96 241.853 1204.54 241.859C1205.04 241.864 1205.53 242.002 1206.03 242.015C1207.36 242.048 1208.56 241.399 1209.79 240.967C1209.87 242.633 1210.34 244.469 1211.03 245.969C1211.58 247.191 1212.74 247.369 1213.88 247.476C1217.53 247.82 1221.19 247.437 1224.85 247.442C1221.31 248.241 1217.66 248.571 1214.15 249.511C1212.57 249.936 1213.78 251.004 1214.45 251.744C1215.57 252.963 1216.4 254.474 1216.98 256.065C1218.7 253.81 1221.76 252.324 1224.47 253.017C1227.46 253.782 1229.57 257.83 1227.66 260.74C1226.55 262.429 1224.54 263.081 1222.87 263.807C1224.17 265.161 1224.49 267.161 1225.27 268.846C1225.66 269.677 1226.2 270.617 1227.07 270.906C1227.39 271.013 1227.76 271.022 1228.01 271.283C1228.33 271.606 1228.4 271.967 1228.8 272.245C1230.39 273.352 1232.88 273.267 1234.29 271.821C1235.57 270.514 1235.24 268.445 1234.17 267.12C1235.87 266.412 1238.96 265.502 1238.29 262.857C1241.97 262.613 1250.9 256.646 1245.96 252.286C1248.67 250.755 1251.16 247.012 1249.42 243.713C1248.08 241.172 1244.96 240.036 1242.41 239.902Z" fill="#191847"/>
<path fill-rule="evenodd" clip-rule="evenodd" d="M1276.38 430H1199.12L1189 554H1304L1276.38 430Z" fill="#C5CFD6"/>
<path fill-rule="evenodd" clip-rule="evenodd" d="M1276.38 430H1252.62L1238.4 554H1304L1276.38 430Z" fill="black" fill-opacity="0.1"/>
<path fill-rule="evenodd" clip-rule="evenodd" d="M1111.05 408.756C1102.81 403.81 1088.99 410.165 1089 417.238C1089.03 438.403 1108.34 538.151 1109.35 544.457C1110.36 550.762 1121.16 552.428 1121.79 544.477C1122.79 531.827 1124.65 488.033 1122.79 467.763C1122.02 459.395 1121.2 451.427 1120.38 444.318C1130.52 462.621 1146.19 488.826 1167.41 522.934L1178.92 517.672C1169.88 487.876 1162.46 466.841 1156.68 454.567C1146.77 433.55 1137.47 415.552 1133.56 409.212C1127.41 399.24 1116.7 402.719 1111.05 408.756Z" fill="#B28B67"/>
<path fill-rule="evenodd" clip-rule="evenodd" d="M1178.1 501.125L1138.57 407.487C1129.1 392.255 1102.55 410.587 1105.78 419.422C1113.11 439.479 1150.4 504.414 1152.58 510.39L1178.1 501.125Z" fill="#1F28CF"/>
<path fill-rule="evenodd" clip-rule="evenodd" d="M1180.3 511.767C1182.76 513.794 1184.36 515.45 1185.1 516.734C1186 518.296 1187.06 520.725 1188.27 524.021C1186.46 525.067 1170.17 534.467 1139.42 552.222C1135.73 548.759 1135.15 546.07 1137.7 544.157C1140.24 542.243 1142.34 540.629 1143.99 539.315L1160.85 516.087C1161.17 515.64 1161.8 515.54 1162.24 515.865C1162.25 515.87 1162.26 515.876 1162.27 515.882L1165.77 518.579C1168.98 518.299 1171.38 517.702 1172.97 516.788C1174.25 516.045 1175.73 514.501 1177.39 512.154C1178.03 511.253 1179.28 511.041 1180.18 511.681C1180.22 511.708 1180.26 511.737 1180.3 511.767Z" fill="#E4E4E4"/>
<path fill-rule="evenodd" clip-rule="evenodd" d="M1124.32 539.402C1125.44 542.388 1126 544.623 1126 546.106C1126 547.909 1125.7 550.54 1125.1 554C1123.01 554 1104.21 554 1068.7 554C1067.23 549.155 1068.08 546.539 1071.24 546.152C1074.39 545.766 1077.02 545.417 1079.1 545.106L1105.32 533.419C1105.82 533.194 1106.42 533.421 1106.64 533.925C1106.64 533.934 1106.65 533.942 1106.65 533.951L1108.34 538.039C1111.26 539.403 1113.64 540.085 1115.46 540.085C1116.95 540.085 1119 539.485 1121.62 538.286C1122.62 537.825 1123.81 538.266 1124.27 539.27C1124.29 539.313 1124.31 539.357 1124.32 539.402Z" fill="#E4E4E4"/>
<path fill-rule="evenodd" clip-rule="evenodd" d="M1086.23 424.433C1086.23 451 1098.85 512.97 1098.85 518.82L1126 518.841C1122.03 463.545 1120.62 435.6 1121.77 435.004C1123.51 434.111 1192.82 441.925 1213.61 441.925C1243.59 441.925 1255.99 423.02 1257 388H1197.61C1185.52 389.294 1122.45 402.015 1099.03 406.388C1089 408.261 1086.23 417.115 1086.23 424.433Z" fill="#2B44FF"/>
<path fill-rule="evenodd" clip-rule="evenodd" d="M1188.36 325.7L1153.65 306.69C1147.88 299.836 1142.19 294.512 1136.59 290.72C1134.88 290.005 1131.89 289.573 1134.69 294.542C1137.48 299.51 1140.21 304.863 1138.78 306.394C1137.35 307.924 1133.8 305.786 1132.1 308.329C1130.96 310.025 1137.04 312.704 1150.32 316.365L1175.54 339.458L1188.36 325.7ZM1134 341.74L1118.75 333.364C1116.61 325.224 1114.06 321.128 1111.08 321.077C1108.8 320.014 1112.78 330.3 1108.44 329.408C1104.11 328.516 1093.54 320.651 1091.71 322.248C1089.02 324.61 1091.42 331.865 1094.25 335.473C1099.55 342.218 1103.93 344.524 1114.76 347.544C1120.43 349.124 1126.55 352.289 1133.13 357.04L1134 341.74Z" fill="#997659"/>
<path fill-rule="evenodd" clip-rule="evenodd" d="M1205.27 321.465C1193.11 321.337 1176.9 318.769 1159.6 307.789L1152.8 322.939C1164.74 334.78 1181.51 344.51 1196.18 344.098C1207.74 343.773 1213.65 329.789 1205.27 321.465Z" fill="#2026A2"/>
<path fill-rule="evenodd" clip-rule="evenodd" d="M1188.9 345.761C1175.99 348.98 1154.35 345.184 1123.96 334.373C1116.43 349.964 1112.94 361.078 1113.51 367.717C1139.58 381.331 1161.91 387.401 1180.32 387.802C1179.73 398.721 1181.06 409.112 1185.53 418.606C1194.71 438.124 1248.45 420.048 1266.53 423.606C1277.84 386.851 1255.96 371.914 1255.94 348.397C1255.93 322.642 1235.25 283 1232.2 283H1204.46C1202.93 302.669 1195.22 324.346 1188.9 345.761Z" fill="#1F28CF"/>
</svg>
