<svg width="673" height="99" viewBox="0 0 673 99" fill="none" xmlns="http://www.w3.org/2000/svg">
<ellipse cx="170.5" cy="35" rx="170.5" ry="35" fill="url(#paint0_radial_14_5)"/>
<path d="M69.16 25.32V22.888H84.584V25.32H78.248V45H75.496V25.32H69.16ZM87.15 45V22.888H100.142L99.534 25.32H89.902V32.616H98.99V34.952H89.902V42.568H100.75V45H87.15ZM103.315 22.888H106.739L112.595 31.144L118.323 22.888H121.715L114.227 33.448L122.483 45H118.899L112.403 35.816L106.067 45H102.675L110.803 33.512L103.315 22.888ZM123.441 25.32V22.888H138.865V25.32H132.529V45H129.777V25.32H123.441ZM157.896 37.704H148.776V35.528H157.896V37.704ZM174.615 35.304L160.215 43.208V41L170.967 35.304L160.215 29.608V27.4L174.615 35.304ZM197.59 25.64C196.097 25.128 194.71 24.872 193.43 24.872C192.15 24.872 191.105 25.2027 190.294 25.864C189.484 26.5253 189.078 27.3253 189.078 28.264C189.078 29.608 189.793 30.664 191.222 31.432L195.734 33.928C198.252 35.336 199.51 37.1493 199.51 39.368C199.51 41.2027 198.86 42.664 197.558 43.752C196.257 44.84 194.422 45.384 192.054 45.384C189.686 45.384 187.564 44.9573 185.686 44.104L186.486 41.864C188.236 42.632 189.953 43.016 191.638 43.016C193.345 43.016 194.604 42.6853 195.414 42.024C196.225 41.3627 196.63 40.5627 196.63 39.624C196.63 38.28 195.916 37.224 194.486 36.456L189.974 33.96C187.457 32.552 186.198 30.7387 186.198 28.52C186.198 26.6853 186.849 25.224 188.15 24.136C189.452 23.048 191.201 22.504 193.398 22.504C194.892 22.504 196.566 22.8133 198.422 23.432L197.59 25.64ZM209.005 36.456H205.933V45H203.181V22.888H209.005C211.267 22.888 213.091 23.4853 214.477 24.68C215.864 25.8747 216.557 27.5387 216.557 29.672C216.557 31.8053 215.864 33.4693 214.477 34.664C213.091 35.8587 211.267 36.456 209.005 36.456ZM205.933 34.024H209.005C212.077 34.024 213.613 32.5733 213.613 29.672C213.613 26.7707 212.077 25.32 209.005 25.32H205.933V34.024ZM219.931 45V22.888H232.923L232.315 25.32H222.683V32.616H231.771V34.952H222.683V42.568H233.531V45H219.931ZM237.056 45V22.888H250.048L249.44 25.32H239.808V32.616H248.896V34.952H239.808V42.568H250.656V45H237.056ZM256.549 34.728C256.549 37.1813 257.189 39.176 258.469 40.712C259.771 42.248 261.52 43.016 263.717 43.016C265.936 43.016 268.101 42.472 270.213 41.384L270.565 43.816C268.176 44.8613 265.829 45.384 263.525 45.384C261.221 45.384 259.301 44.872 257.765 43.848C256.251 42.8027 255.141 41.4907 254.437 39.912C253.733 38.3333 253.381 36.6053 253.381 34.728C253.381 31.144 254.427 28.2107 256.517 25.928C258.608 23.6453 261.392 22.504 264.869 22.504C266.469 22.504 268.197 22.792 270.053 23.368L269.285 25.608C267.813 25.16 266.341 24.936 264.869 24.936C262.267 24.936 260.229 25.8107 258.757 27.56C257.285 29.3093 256.549 31.6987 256.549 34.728ZM288.463 45V34.952H276.527V45H273.775V22.888H276.527V32.616H288.463V22.888H291.215V45H288.463Z" fill="url(#paint1_linear_14_5)"/>
<defs>
<radialGradient id="paint0_radial_14_5" cx="0" cy="0" r="1" gradientUnits="userSpaceOnUse" gradientTransform="translate(170.5 35) rotate(-23.5893) scale(163.677 797.342)">
<stop stop-color="#FF900D"/>
<stop offset="0.613553" stop-color="#7102A6" stop-opacity="0.99"/>
<stop offset="0.9998" stop-color="#7102A6" stop-opacity="0.99"/>
<stop offset="0.9999" stop-color="#2E29FF"/>
</radialGradient>
<linearGradient id="paint1_linear_14_5" x1="25.5" y1="55" x2="352.5" y2="55" gradientUnits="userSpaceOnUse">
<stop stop-color="#020213"/>
<stop offset="0.855248" stop-color="#020213"/>
<stop offset="1" stop-color="#020213"/>
</linearGradient>
</defs>
</svg>
