<svg width="229" height="439" viewBox="0 0 229 439" fill="none" xmlns="http://www.w3.org/2000/svg">
<path fill-rule="evenodd" clip-rule="evenodd" d="M95.4434 60.7415C92.2615 54.0491 90.909 46.53 93.4388 39.1886C100.728 18.0359 129.467 30.8194 132.389 43.2642C135.311 55.7089 127.222 83.1227 119.156 83.0458C115.94 83.0152 110.039 79.398 104.57 73.7182L100.902 103.783L76.7257 97.3046L95.4434 60.7415Z" fill="#D4A181"/>
<path fill-rule="evenodd" clip-rule="evenodd" d="M104.217 61.4676C99.6772 66.419 94.3695 69.6416 90.2271 68.5317C82.3589 66.4234 79.5831 54.4048 82.6137 43.0944C82.7202 42.697 82.8338 42.3044 82.9544 41.9168C73.1008 45.3981 63.6696 54.9375 52.6567 51.9866C37.6737 47.9719 39.821 16.1567 60.7544 21.7658C74.9906 25.5804 81.4372 29.5324 86.6497 34.2189C88.7392 31.1822 91.3101 28.8473 94.0574 27.4718C94.7524 27.0138 95.7251 26.6581 96.9239 26.4079C97.6642 26.2277 98.4094 26.119 99.1541 26.0865C103.152 25.7242 108.677 26.1934 114.62 27.5656C115.73 27.8219 116.813 28.1 117.863 28.3965C119.367 22.8522 125.074 19.566 130.627 21.0539C136.191 22.5446 139.492 28.2632 138.002 33.8267C136.56 39.2071 131.164 42.472 125.778 41.3327C122.49 41.4561 118.403 41.0985 113.997 40.2291C113.994 41.9218 113.741 43.7782 113.198 45.8068C112.718 47.598 112.011 49.4447 111.13 51.2761C110.491 49.9088 109.431 48.8445 108.157 48.5031C104.593 47.5482 101.327 49.8151 100.493 52.9277C99.4344 56.8781 100.949 60.347 104.217 61.4676Z" fill="#191847"/>
<path fill-rule="evenodd" clip-rule="evenodd" d="M45.8874 189.498L84.0895 321.14L102.058 419.978H120.093L102.09 189.498H45.8874Z" fill="#BA8B72"/>
<path fill-rule="evenodd" clip-rule="evenodd" d="M28.719 189.498C31.3846 257.885 30.3333 295.185 29.7367 301.399C29.1401 307.612 25.7532 349.224 2.67366 422.064H21.4315C51.9965 352.187 62.6665 310.574 66.1721 301.399C69.6776 292.223 80.0312 254.923 95.1469 189.498H28.719Z" fill="#D4A181"/>
<path fill-rule="evenodd" clip-rule="evenodd" d="M45.0673 189.498C55.0043 234.796 72.191 307.104 96.6274 406.42H123.005C124.954 304.481 116.666 237.388 102.313 189.498H45.0673Z" fill="#69A1AC"/>
<path fill-rule="evenodd" clip-rule="evenodd" d="M28.5857 189.498C31.1963 257.885 24.4307 325.259 3.47337 407.485H31.6172C62.2385 338.651 84.1857 271.609 99.1852 189.498H28.5857Z" fill="#89C5CC"/>
<path fill-rule="evenodd" clip-rule="evenodd" d="M0 435.621L1.03499 418.935C7.09473 420.707 14.6847 420.012 23.8048 416.849C33.6112 423.796 45.9562 428.539 60.8397 431.079C61.9752 431.273 62.7386 432.35 62.5449 433.486C62.5323 433.559 62.5158 433.632 62.4955 433.704L61.0646 438.75H23.8048H2.06999L0 435.621Z" fill="#191847"/>
<path fill-rule="evenodd" clip-rule="evenodd" d="M98.0322 435.621L99.0672 418.935C105.127 420.707 112.717 420.012 121.837 416.849C131.643 423.796 143.988 428.539 158.872 431.079C160.007 431.273 160.771 432.35 160.577 433.486C160.564 433.559 160.548 433.632 160.528 433.704L159.097 438.75H121.837H100.102L98.0322 435.621Z" fill="#191847"/>
<path fill-rule="evenodd" clip-rule="evenodd" d="M120.508 130.87L159.599 117.631C166.769 111.637 173.574 107.2 180.014 104.319C181.902 103.895 185.055 103.993 181.28 108.589C177.504 113.186 173.74 118.19 174.928 120.021C176.116 121.851 180.155 120.299 181.442 123.219C182.3 125.166 175.575 126.817 161.266 128.171L131.181 147.321L120.508 130.87ZM173.436 157.189L190.612 151.347C194.283 143.374 197.651 139.631 200.716 140.117C203.256 139.439 197.305 149.283 201.917 149.151C206.528 149.02 218.814 142.857 220.396 144.827C222.737 147.742 218.955 154.757 215.392 157.95C208.734 163.919 203.816 165.494 192.143 166.634C186.041 167.23 179.178 169.372 171.557 173.06L173.436 157.189Z" fill="#D4A181"/>
<path fill-rule="evenodd" clip-rule="evenodd" d="M103.914 123.459C116.423 125.529 133.539 125.828 153.294 117.683L157.528 134.473C143.129 144.474 124.135 151.429 109.143 148.349C97.328 145.922 93.792 130.49 103.914 123.459Z" fill="#2026A2"/>
<path fill-rule="evenodd" clip-rule="evenodd" d="M116.327 151.377C129 157.021 151.917 157.042 185.077 151.44C189.994 168.817 191.559 180.863 189.772 187.578C160.539 196.841 136.498 199.03 117.524 196.108C116.148 207.43 112.901 217.86 106.596 226.803C93.6334 245.187 41.7033 216.888 22.4978 217.269C17.5305 177.47 42.71 166.092 46.987 141.942C51.6709 115.494 80.089 78.5244 83.2139 79.0754L111.711 84.1002C109.722 104.579 113.71 128.237 116.327 151.377Z" fill="#1F28CF"/>
</svg>
